<?xml version="1.0" encoding="utf-8"?>

<svg version="1.1" id="Layer_1" focusable="false" xmlns="http://www.w3.org/2000/svg" xmlns:xlink="http://www.w3.org/1999/xlink"
	 x="0px" y="0px" viewBox="0 0 512 512" style="enable-background:new 0 0 512 512;" xml:space="preserve">
<style type="text/css">
	.st0{fill:#FFFFFF;}
</style>
<g>
	<path class="st0" d="M276.7,382.1l-5.6,70.4c0,0-5.3,9.6-12.7,9.5c-8.6-0.1-12.7-9.5-12.7-9.5l-5.6-70.4H276.7z"/>
	<path class="st0" d="M282.8,183.5c-2.3,0.7-4.4,1.5-6.3,2.3l-4.9,2.3c-8.6,4.4-12.9,8.8-12.9,8.8s-4.2-4.4-12.9-8.8l-4.9-2.3
		c-2-0.8-3.9-1.5-6.2-2.2l-5.1-1.6c-2.6-0.7-5.5-1.2-8.4-1.7l-1-11.2l-6.9-0.1c-7.5,0.3-7.8-13.3-1.1-13.5c0,0,23.4,0,46.5,0
		c23.2,0,46.5,0,46.5,0c6.6,0.3,6.4,13.8-1.1,13.5l-6.9,0.1l-1,11.2c-3,0.5-5.8,1-8.5,1.7L282.8,183.5z"/>
	<g>
		<path class="st0" d="M256,512C114.8,512,0,397.2,0,256S114.8,0,256,0s256,114.8,256,256S397.2,512,256,512z M256,25.1
			C128.7,25.1,25.1,128.7,25.1,256S128.7,486.9,256,486.9S486.9,383.3,486.9,256S383.3,25.1,256,25.1z"/>
	</g>
	<g>
		<path class="st0" d="M253.9,204.5c-4.8-3-12.4-7.2-21.2-10c-34-11.1-69.1,10-92,10.8c-18,0.6-36.9-3.9-36.9-3.9l0.3,176.9
			c0,0,14.5-3.3,24.2-7.1c41.8-16.5,81.8-16.8,97.3-12.4c10.5,3,21.9,9.4,28.2,13.2L253.9,204.5L253.9,204.5z"/>
		<path class="st0" d="M376.7,205.2c-22.8-0.7-57.9-21.8-91.9-10.8c-8.6,2.8-16.2,7-21.2,10v167.3c6.3-3.8,17.6-10.1,28.2-13.2
			c15.5-4.4,55.5-4.1,97.3,12.4c9.7,3.9,24.5,7.6,24.5,7.6V201.2C413.6,201.3,394.7,205.8,376.7,205.2z"/>
	</g>
	<path class="st0" d="M247.2,65.2c4.5-3.8,9.5-7.3,14.7-9.8c0.5-0.2,10.7-3.9,8.1-0.4c-9.8,13.5-9.5,36-9.5,36
		c0.4-7.2,14.7-17.6,19.2-17.6c0,0,0.2,21.5,10.5,31.8c16.3,16.1,8.7,34.4,4.8,41.5h-29.6c5.7-7.8,2.7-17.8-3.4-23.6
		c-8.2-7.7-6.9-20.5-6.1-23.9c-14.3,6.5-20.7,32.5-9.1,47.4h-24.2c-5.9-5.4-8.4-14.3-8.7-22.5c-0.2-10.7,4.9-20.2,9.4-29.5
		c4.9-10.1,12.1-18.7,20.3-26.3C244.8,67.3,246,66.2,247.2,65.2z"/>
</g>
</svg>