<?xml version="1.0" encoding="utf-8"?>

<svg version="1.1" id="Layer_1" focusable="false" xmlns="http://www.w3.org/2000/svg" xmlns:xlink="http://www.w3.org/1999/xlink"
	 x="0px" y="0px" viewBox="0 0 512 512" style="enable-background:new 0 0 512 512;" xml:space="preserve">
<style type="text/css">
	.st0{fill:#FFFFFF;}
</style>
<g>
	<g>
		<path class="st0" d="M256,512C114.8,512,0,397.2,0,256S114.8,0,256,0s256,114.8,256,256S397.2,512,256,512z M256,25.1
			C128.7,25.1,25.1,128.7,25.1,256S128.7,486.9,256,486.9S486.9,383.3,486.9,256S383.3,25.1,256,25.1z"/>
	</g>
	<path class="st0" d="M256,50C142.2,50,50,142.2,50,256s92.2,206,206,206s206-92.2,206-206S369.8,50,256,50z M227.9,115.2
		c4.3-8.8,10.6-16.4,17.7-23c1-0.9,2-1.9,3.1-2.7c3.9-3.3,8.3-6.4,12.8-8.5c0.4-0.2,9.3-3.4,7.1-0.3c-8.6,11.8-8.3,31.5-8.3,31.5
		c0.3-6.3,12.9-15.4,16.8-15.4c0,0,0.2,18.8,9.2,27.8c14.2,14.1,7.6,30.1,4.2,36.2h-25.9c5-6.8,2.3-15.6-3-20.6
		c-7.2-6.7-6-17.9-5.3-20.9c-12.5,5.7-18.1,28.4-8,41.4h-21.1c-5.2-4.8-7.3-12.5-7.6-19.7C219.5,131.7,223.9,123.4,227.9,115.2z
		 M218,168.4c0,0,20.5,0,40.7,0s40.7,0,40.7,0c5.8,0.2,5.6,12.1-1,11.8l-6,0.1l-0.9,9.8c-2.7,0.4-5.1,0.9-7.4,1.5l-4.3,1.3
		c-2,0.6-3.8,1.3-5.5,2.1l-4.3,2c-7.6,3.8-11.3,7.7-11.3,7.7s-3.7-3.9-11.3-7.7l-4.3-2c-1.8-0.7-3.4-1.3-5.4-2l-4.4-1.4
		c-2.3-0.6-4.8-1.1-7.4-1.5l-0.9-9.8l-6-0.1C212.4,180.4,212.2,168.6,218,168.4z M144.9,356.8c-8.5,3.4-21.2,6.2-21.2,6.2
		l-0.2-154.6c0,0,16.5,3.9,32.2,3.4c20-0.6,50.7-19.1,80.4-9.4c7.6,2.5,14.3,6.1,18.5,8.8v146.2c-5.5-3.3-15.4-8.9-24.6-11.5
		C216.4,342,181.4,342.3,144.9,356.8z M269.6,428c0,0-4.6,8.4-11.1,8.3c-7.5-0.1-11.1-8.3-11.1-8.3l-4.9-61.5h31.9L269.6,428z
		 M394,363.4c0,0-12.9-3.2-21.4-6.6c-36.5-14.4-71.5-14.7-85-10.9c-9.2,2.6-19.1,8.2-24.6,11.5V211.2c4.3-2.7,11-6.3,18.5-8.8
		c29.7-9.7,60.4,8.8,80.3,9.4c15.7,0.5,32.2-3.4,32.2-3.4V363.4z"/>
</g>
</svg>